PathFileType	4	(X/Y/Z)	/home/nbianco/projects/addbio/data/HamnerRunning2013/Processed/subject17//results/MarkerData/run300.trc
DataRate	CameraRate	NumFrames	NumMarkers	Units	OrigDataRate	OrigDataStartFrame	OrigNumFrames
120.005	120.005	10	41	m	120.005	67	270
Frame#	Time	C7			CLAV			LACR			LASI			LCAL			LFAradius			LFAsuperior			LFAulna			LLEL			LMEL			LMT5			LPSI			LTB1			LTB2			LTB3			LTH1			LTH2			LTH3			LTOE			LUA1			LUA2			LUA3			RACR			RASI			RCAL			RFAradius			RFAsuperior			RFAulna			RLEL			RMEL			RMT5			RPSI			RTB1			RTB2			RTB3			RTH1			RTH3			RTOE			RUA1			RUA2			RUA3		
		X1	Y1	Z1	X2	Y2	Z2	X3	Y3	Z3	X4	Y4	Z4	X5	Y5	Z5	X6	Y6	Z6	X7	Y7	Z7	X8	Y8	Z8	X9	Y9	Z9	X10	Y10	Z10	X11	Y11	Z11	X12	Y12	Z12	X13	Y13	Z13	X14	Y14	Z14	X15	Y15	Z15	X16	Y16	Z16	X17	Y17	Z17	X18	Y18	Z18	X19	Y19	Z19	X20	Y20	Z20	X21	Y21	Z21	X22	Y22	Z22	X23	Y23	Z23	X24	Y24	Z24	X25	Y25	Z25	X26	Y26	Z26	X27	Y27	Z27	X28	Y28	Z28	X29	Y29	Z29	X30	Y30	Z30	X31	Y31	Z31	X32	Y32	Z32	X33	Y33	Z33	X34	Y34	Z34	X35	Y35	Z35	X36	Y36	Z36	X37	Y37	Z37	X38	Y38	Z38	X39	Y39	Z39	X40	Y40	Z40	X41	Y41	Z41

68	1.05833	0.819668	1.49017	-0.309589	0.928511	1.42288	-0.25051	0.910713	1.43348	-0.476511	0.875497	0.982426	-0.418281	0.470749	0.135652	-0.304257	0.987713	1.12821	-0.425015	0.926454	1.11253	-0.534149	1.00564	1.07304	-0.463961	0.817973	1.14795	-0.598084	0.757997	1.14186	-0.533901	0.652505	0.0599323	-0.354367	0.718462	1.01602	-0.343432	0.739636	0.351567	-0.312338	0.671743	0.298125	-0.381625	0.639837	0.213029	-0.305004	0.808266	0.790897	-0.466265	0.85088	0.677549	-0.439507	0.767151	0.57291	-0.406315	0.665638	0.0755716	-0.265091	0.860169	1.30538	-0.544999	0.791986	1.26167	-0.555202	0.858931	1.21863	-0.562723	0.826298	1.4377	-0.0941329	0.882552	0.971741	-0.182983	0.664153	0.397649	-0.215804	0.684165	1.01416	-0.0553993	0.641753	1.12282	-0.0135839	0.628553	0.99837	-0.0156858	0.592222	1.24159	-0.023377	0.57287	1.2263	-0.101879	0.747566	0.229529	-0.138809	0.715074	1.00944	-0.246587	0.978838	0.437884	-0.222186	0.909033	0.442053	-0.153872	0.864416	0.393133	-0.220859	0.865111	0.818549	-0.120577	1.0112	0.613922	-0.153001	0.769574	0.21412	-0.231594	0.722608	1.33886	-0.0540283	0.660595	1.35608	-0.0943019	0.651963	1.28545	-0.0347763
69	1.06667	0.818548	1.49713	-0.309329	0.926454	1.43058	-0.248393	0.912795	1.44153	-0.474341	0.878318	0.986349	-0.418025	0.450249	0.144685	-0.306608	0.99024	1.14086	-0.41982	0.932559	1.12306	-0.53054	1.01076	1.08615	-0.458058	0.825451	1.15549	-0.597984	0.763589	1.14915	-0.535115	0.628326	0.0601995	-0.354541	0.72145	1.02172	-0.343676	0.719191	0.358478	-0.313198	0.649564	0.306422	-0.382182	0.618397	0.220238	-0.306441	0.807564	0.795227	-0.465095	0.843343	0.681161	-0.436786	0.752981	0.580415	-0.405587	0.641796	0.0762908	-0.265548	0.865069	1.31317	-0.544029	0.797711	1.26907	-0.556489	0.865043	1.22657	-0.56175	0.82179	1.44565	-0.0946288	0.885055	0.979049	-0.183579	0.680038	0.37843	-0.217189	0.678077	1.02557	-0.0577196	0.634596	1.13426	-0.0164713	0.621838	1.0094	-0.0191195	0.585033	1.25249	-0.0270102	0.566884	1.23783	-0.106018	0.776999	0.217816	-0.14015	0.717312	1.01675	-0.247171	0.991109	0.441923	-0.223321	0.921415	0.440782	-0.155626	0.879923	0.388623	-0.220805	0.868497	0.827818	-0.119466	1.01574	0.622992	-0.154919	0.799118	0.204634	-0.23398	0.71688	1.34864	-0.0553665	0.655809	1.36679	-0.0966083	0.645606	1.29563	-0.0372977
70	1.075	0.817435	1.50422	-0.309015	0.924543	1.43841	-0.246321	0.914854	1.44979	-0.472149	0.881585	0.990553	-0.417514	0.431428	0.15524	-0.308991	0.99192	1.15321	-0.414903	0.937885	1.13379	-0.527213	1.01495	1.09912	-0.452483	0.832317	1.16358	-0.597888	0.768917	1.15687	-0.536391	0.604647	0.0603726	-0.354705	0.724841	1.02784	-0.343885	0.69956	0.366981	-0.314606	0.628507	0.316266	-0.383319	0.598294	0.229005	-0.308218	0.806916	0.800034	-0.46397	0.835775	0.685782	-0.43428	0.739697	0.589088	-0.405376	0.618544	0.0767431	-0.265999	0.869753	1.32139	-0.543125	0.803049	1.27715	-0.557547	0.870659	1.23503	-0.560974	0.817756	1.45353	-0.0951068	0.887789	0.986772	-0.183613	0.697169	0.358622	-0.218376	0.672839	1.03694	-0.0600669	0.628095	1.1455	-0.0194187	0.616018	1.02027	-0.022619	0.57843	1.26328	-0.0307457	0.561582	1.24902	-0.110229	0.807118	0.206302	-0.1421	0.719963	1.02451	-0.247592	1.00274	0.445376	-0.224521	0.933628	0.438829	-0.157334	0.895707	0.383802	-0.221393	0.872719	0.836835	-0.118702	1.01939	0.631404	-0.156782	0.829762	0.195447	-0.236561	0.711633	1.35847	-0.0567777	0.651545	1.37743	-0.0991141	0.639763	1.30579	-0.0399108
71	1.08333	0.816372	1.51123	-0.308626	0.922869	1.44618	-0.244322	0.916826	1.45812	-0.469932	0.885312	0.995051	-0.416709	0.414608	0.16702	-0.311388	0.992924	1.16512	-0.410296	0.942548	1.14452	-0.524145	1.01836	1.11174	-0.447155	0.838632	1.17201	-0.597792	0.773935	1.16486	-0.537797	0.581451	0.0603963	-0.354914	0.728667	1.03431	-0.344211	0.680942	0.376779	-0.31659	0.608858	0.327378	-0.385084	0.580032	0.238886	-0.310422	0.805896	0.805463	-0.462892	0.82845	0.691371	-0.432079	0.727343	0.598769	-0.405733	0.595927	0.0768775	-0.266527	0.874215	1.32986	-0.54229	0.808045	1.28569	-0.55843	0.875851	1.2438	-0.560373	0.81419	1.46117	-0.0955168	0.890695	0.994808	-0.183139	0.715527	0.338357	-0.219442	0.668449	1.04816	-0.0622829	0.622272	1.15638	-0.0224109	0.611031	1.03084	-0.0261671	0.572417	1.27381	-0.0345156	0.556888	1.2597	-0.114416	0.83797	0.195159	-0.144604	0.722963	1.03264	-0.247899	1.01381	0.44812	-0.225579	0.945671	0.436373	-0.158877	0.911738	0.378735	-0.222608	0.877563	0.845589	-0.118254	1.02212	0.639055	-0.158528	0.861278	0.186805	-0.239359	0.706892	1.36807	-0.0582591	0.647821	1.38771	-0.101764	0.634423	1.3158	-0.0425775
72	1.09167	0.815412	1.51795	-0.308173	0.921453	1.45369	-0.242472	0.918647	1.46643	-0.467745	0.889427	0.999778	-0.41544	0.400023	0.179736	-0.313922	0.993422	1.17652	-0.40604	0.946653	1.15506	-0.521324	1.02112	1.12386	-0.442117	0.844455	1.18054	-0.597738	0.778466	1.17307	-0.539321	0.558675	0.0603769	-0.355333	0.732885	1.04107	-0.344671	0.663574	0.387525	-0.31911	0.590742	0.339456	-0.387467	0.56383	0.249362	-0.313301	0.804516	0.811565	-0.461922	0.821624	0.697692	-0.430272	0.715927	0.609279	-0.406575	0.573969	0.0769393	-0.267292	0.878439	1.33843	-0.541513	0.81276	1.29447	-0.559222	0.880685	1.25269	-0.559906	0.811046	1.46847	-0.0958693	0.893699	1.00299	-0.182302	0.735111	0.317754	-0.220516	0.664856	1.05907	-0.0643445	0.617152	1.16682	-0.0254458	0.60682	1.04097	-0.0297423	0.566986	1.28392	-0.0382744	0.552767	1.2698	-0.118525	0.869509	0.184575	-0.147562	0.726189	1.04103	-0.248157	1.02436	0.45017	-0.226441	0.95749	0.433482	-0.160251	0.927923	0.373389	-0.224084	0.882165	0.854201	-0.117851	1.02397	0.645868	-0.160156	0.893227	0.179046	-0.242519	0.702652	1.3772	-0.0597978	0.644648	1.39742	-0.104507	0.629558	1.32552	-0.0452755
73	1.1	0.814603	1.52426	-0.307687	0.920259	1.46084	-0.240838	0.92027	1.47459	-0.465664	0.893787	1.00461	-0.413694	0.387738	0.193176	-0.316818	0.993541	1.18734	-0.402158	0.950268	1.16524	-0.518733	1.02335	1.1354	-0.437442	0.849825	1.189	-0.597776	0.782382	1.18142	-0.540871	0.536344	0.0606482	-0.356181	0.737373	1.04802	-0.345166	0.647708	0.398895	-0.322039	0.574125	0.352225	-0.39038	0.549565	0.260021	-0.317101	0.803115	0.818221	-0.46119	0.815447	0.704419	-0.428972	0.705479	0.62038	-0.407717	0.552763	0.0774736	-0.268478	0.8824	1.34692	-0.540782	0.81723	1.30325	-0.559991	0.885208	1.26147	-0.559535	0.80826	1.47539	-0.0962069	0.896711	1.0111	-0.181256	0.755954	0.296973	-0.221687	0.661953	1.06948	-0.0663522	0.612733	1.17673	-0.0284953	0.603334	1.05054	-0.0332719	0.562122	1.2935	-0.0419762	0.549207	1.27927	-0.122514	0.901582	0.174726	-0.150858	0.729524	1.04944	-0.24841	1.03432	0.451639	-0.227265	0.969024	0.430103	-0.161526	0.944178	0.367741	-0.225493	0.885615	0.862733	-0.117175	1.02497	0.651785	-0.161719	0.925267	0.172383	-0.246039	0.698877	1.38571	-0.0613553	0.642012	1.40641	-0.107299	0.625145	1.33484	-0.0479465
74	1.10833	0.813967	1.5301	-0.307199	0.919236	1.46753	-0.239427	0.921672	1.48244	-0.463719	0.898218	1.00942	-0.41175	0.377622	0.207215	-0.320323	0.993354	1.19754	-0.39863	0.953425	1.1749	-0.516338	1.0251	1.14627	-0.433144	0.854749	1.19719	-0.597939	0.785734	1.18974	-0.54235	0.514651	0.0617145	-0.357592	0.741951	1.05504	-0.345567	0.633521	0.410571	-0.325161	0.558912	0.365387	-0.393633	0.53691	0.27063	-0.3218	0.802091	0.825177	-0.460839	0.809959	0.711228	-0.42829	0.696078	0.631734	-0.408919	0.532497	0.0791479	-0.270196	0.886067	1.35517	-0.540088	0.821454	1.31181	-0.560758	0.889445	1.26994	-0.55923	0.805786	1.48187	-0.0965695	0.899647	1.01889	-0.180093	0.778068	0.276259	-0.222946	0.65963	1.07916	-0.0684177	0.608983	1.18603	-0.0314886	0.600534	1.05948	-0.0366304	0.557816	1.30242	-0.0455582	0.546194	1.28801	-0.126333	0.933966	0.16577	-0.154368	0.73287	1.05762	-0.248651	1.0436	0.452662	-0.228273	0.980254	0.426161	-0.162757	0.960427	0.361885	-0.226782	0.887624	0.871064	-0.116142	1.02515	0.656753	-0.163299	0.957217	0.166861	-0.249714	0.695516	1.39351	-0.0628758	0.639864	1.41459	-0.110103	0.621175	1.34363	-0.0505014
75	1.11667	0.81349	1.53548	-0.306732	0.918355	1.4737	-0.238185	0.922864	1.48979	-0.461877	0.902541	1.01409	-0.410015	0.369364	0.221759	-0.32458	0.992896	1.20707	-0.395414	0.956121	1.18392	-0.514094	1.02639	1.15638	-0.429179	0.859205	1.20494	-0.598224	0.78871	1.19778	-0.543721	0.493863	0.0640635	-0.359477	0.746436	1.06198	-0.3458	0.621057	0.422195	-0.328203	0.545093	0.378557	-0.39695	0.52553	0.281091	-0.326964	0.801654	0.83212	-0.460934	0.805142	0.717858	-0.428276	0.687829	0.642905	-0.409961	0.513328	0.0824639	-0.272406	0.889412	1.36304	-0.539422	0.825392	1.31997	-0.56148	0.893394	1.27792	-0.558982	0.803603	1.48785	-0.0969725	0.902438	1.02609	-0.178836	0.801377	0.255944	-0.224218	0.657823	1.08796	-0.0705503	0.605867	1.19458	-0.0343262	0.598397	1.06772	-0.0396831	0.554062	1.31056	-0.0489437	0.543711	1.29592	-0.129928	0.96641	0.157877	-0.157988	0.736143	1.06537	-0.248824	1.05212	0.453313	-0.229539	0.991213	0.421662	-0.163923	0.976565	0.356028	-0.228097	0.888679	0.878877	-0.114999	1.02449	0.660707	-0.16493	0.988941	0.162485	-0.253313	0.692528	1.40057	-0.0643094	0.63813	1.42191	-0.112869	0.61765	1.35175	-0.0528736
76	1.125	0.813143	1.54039	-0.30629	0.917621	1.47926	-0.23705	0.92389	1.49648	-0.460103	0.906585	1.01851	-0.4087	0.362529	0.236671	-0.329511	0.992205	1.21586	-0.39247	0.958335	1.19218	-0.511974	1.02721	1.16565	-0.425505	0.863159	1.21213	-0.598592	0.791448	1.20526	-0.544989	0.474085	0.0679653	-0.361559	0.750691	1.06868	-0.345887	0.61026	0.433338	-0.330888	0.532878	0.391232	-0.40006	0.515171	0.291336	-0.331885	0.801734	0.838765	-0.461402	0.800959	0.724142	-0.428875	0.680842	0.653431	-0.4107	0.495224	0.0875219	-0.274951	0.892417	1.37038	-0.538771	0.828984	1.32754	-0.562076	0.897035	1.28529	-0.558814	0.801711	1.49327	-0.0974009	0.905026	1.03247	-0.177497	0.825659	0.236392	-0.225449	0.656535	1.09577	-0.0726412	0.603364	1.20224	-0.0369128	0.596918	1.07513	-0.0423355	0.550862	1.3178	-0.0520592	0.541741	1.30287	-0.133251	0.998643	0.151257	-0.161664	0.739264	1.07253	-0.248871	1.05986	0.453586	-0.230924	1.00194	0.416731	-0.164966	0.992423	0.350404	-0.229563	0.889543	0.885727	-0.114133	1.02293	0.663593	-0.166534	1.02021	0.159356	-0.256771	0.689905	1.40691	-0.0656302	0.63673	1.42835	-0.115541	0.614579	1.35905	-0.0550527
77	1.13333	0.812897	1.54478	-0.305865	0.91706	1.48413	-0.235986	0.924813	1.50241	-0.458415	0.910203	1.02257	-0.407656	0.356598	0.251735	-0.334764	0.991352	1.22386	-0.389794	0.960047	1.19959	-0.509984	1.02753	1.17392	-0.422109	0.86657	1.21863	-0.598982	0.79392	1.21201	-0.546153	0.455069	0.073421	-0.363561	0.754623	1.07501	-0.34591	0.601041	0.443548	-0.332995	0.522647	0.402875	-0.402782	0.505631	0.301256	-0.33593	0.80207	0.844924	-0.462057	0.797412	0.730031	-0.429941	0.675237	0.662919	-0.411107	0.477882	0.0940055	-0.277665	0.895085	1.37706	-0.538122	0.832166	1.33439	-0.562459	0.900327	1.29196	-0.55877	0.80012	1.49802	-0.0978153	0.907349	1.0378	-0.176158	0.850558	0.217911	-0.226691	0.655797	1.10258	-0.0745438	0.60147	1.20889	-0.0391859	0.596105	1.08161	-0.0445548	0.548216	1.32404	-0.0548491	0.54027	1.30876	-0.136263	1.03033	0.146157	-0.165395	0.742184	1.07897	-0.248786	1.06677	0.453443	-0.2322	1.01238	0.411576	-0.165855	1.00778	0.34518	-0.231168	0.890583	0.891171	-0.113765	1.02046	0.665395	-0.167924	1.05066	0.157688	-0.260205	0.687664	1.41251	-0.0668371	0.635608	1.43386	-0.118054	0.611973	1.36542	-0.0570634
